<?xml version="1.0" standalone="no"?>
<!DOCTYPE svg PUBLIC "-//W3C//DTD SVG 20010904//EN"
 "http://www.w3.org/TR/2001/REC-SVG-20010904/DTD/svg10.dtd">
<svg version="1.0" xmlns="http://www.w3.org/2000/svg"
 width="70.000000pt" height="70.000000pt" viewBox="0 0 70.000000 70.000000"
 preserveAspectRatio="xMidYMid meet">
<metadata>
Created by potrace 1.11, written by Peter Selinger 2001-2013
</metadata>
<g transform="translate(0.000000,70.000000) scale(0.100000,-0.100000)"
fill="#000000" stroke="none">
<path d="M304 519 c-81 -19 -132 -98 -120 -186 8 -60 31 -97 77 -122 72 -41
163 -29 207 27 11 14 12 14 13 -4 1 -10 1 -22 1 -26 -2 -12 26 -17 31 -5 3 7
4 46 3 87 l-1 75 -74 0 c-63 0 -74 -3 -77 -17 -2 -15 6 -18 51 -18 30 0 57 -5
60 -10 10 -16 -34 -71 -68 -85 -39 -16 -106 -10 -137 13 -14 10 -31 38 -39 61
-28 87 18 169 100 178 57 7 116 -17 129 -52 6 -15 17 -25 30 -25 28 0 25 22
-7 60 -41 49 -103 66 -179 49z"/>
</g>
</svg>
